/* XPM */
static char *_3d3e783828b463ce4443fb6e4afa0dfMFIxAHbXjS1PDfzg[] = {
/* columns rows colors chars-per-pixel */
"32 32 7 1 ",
"  c None",
". c #56587B",
"X c #802954",
"o c #D01946",
"O c #E84444",
"+ c #5880CC",
"@ c #E6DECA",
/* pixels */
"                                ",
"              XXXXXXX           ",
"           XXXXXXXXXXXX         ",
"         XXXXXXXXoooOOOOOOoo    ",
"       XXXXooOOOOOOOOOOO..OOOo  ",
"      XXXooOOOOOOOOOOOO+.@.OOoo ",
"     XXoOOOOOOOOOOOOOOO+...OOOo ",
"      oOOOOOOOOOOOOOOOOO++OOOOo ",
"     oOOOOOOOOOOOOOOOOOOOOOoXXX ",
"    oOOOOOOOOOOOOOOOOOOOOoXXooX ",
"   oOOOOOOOOOOOOOOOOOOOOOooOOo  ",
"  oOOOOOOOOOOOOOOOOOOOOOOoOOo   ",
"  oOOOOOOOOOOOOOOOOOOOOOoooo    ",
" ooOOOOOOOOOOOOOOooOOoooooo     ",
" oooOOOOOOOOOOOOooOoooooo       ",
" ooOOoOOOOOOOoooXOOooo          ",
" oOOOOoooooooXXXoOo             ",
" XOOOOoooooX   XOo              ",
" XoOOooooX     oo               ",
"  ooooooo                       ",
"   XoooooX                      ",
"    XooooXXX                    ",
"     XXXooXXXXXXXXXX            ",
"       XXooXXXXXXXX             ",
"        XXXoXXXXXX              ",
"         XXXXXXX                ",
"         XXXXX                  ",
"         XXXXX                  ",
"          XXX                   ",
"          XXX                   ",
"          XX                    ",
"                                "
};
