/* XPM */
static char *c62147cab67d4dff8ae7c3955893e5c4FgmaWDKgQSCTbBzO[] = {
/* columns rows colors chars-per-pixel */
"48 48 18 1 ",
"  c None",
". c #5A423B",
"X c #724B36",
"o c #82553A",
"O c #94603C",
"+ c #9F663D",
"@ c #986A3F",
"# c #A12643",
"$ c #B07740",
"% c #DEC537",
"& c #D4AC7C",
"* c #738FC0",
"= c #E3BF93",
"- c #CDD6B0",
"; c #90A4C5",
": c #AEBACD",
"> c #E0E4CC",
", c #E5E8CF",
/* pixels */
"                                                ",
"                ::                              ",
"                 ::                             ",
"                 ;;:                            ",
"                  ;;:                           ",
"                  *;;:                          ",
"                  ;*;;:                         ",
"                   ;*;;:                        ",
"                    ;*;;:                       ",
"                     ;*;;:                      ",
"                      ;*;;:                     ",
"                       ;;;;:                    ",
"                        ;;;; %                  ",
"                          ;;; %                 ",
"                       ooooo;%                  ",
"                      +++++oo&&&                ",
"                      ooooooo&&&                ",
"                       &==&+o+##@               ",
"                      .&=&.+o+ ===              ",
"                      o....+oo$===@             ",
"                      oo...+o$$@==%             ",
"                    >>>o..>>>$$@@%-%            ",
"                   >>,,,O>>>>$$@X-%-            ",
"                   >-,,,O>>>>>@-X--             ",
"                   >--,,,X>>->-                 ",
"                   >-------->                   ",
"                    >-->>>>>                    ",
"                    >--->>>                     ",
"                     O-->>>                     ",
"                     -OOOOO                     ",
"                    -->ooo>-                    ",
"                   -->ooooo>-                   ",
"                  -->ooooooo>-                  ",
"                 -->ooooooooo>                  ",
"                  oooooooXo++                   ",
"                 oo++oooXXoo++                  ",
"                oo++++XXXoo++++                 ",
"               oo+++oXXXooooo+++                ",
"              oo++ooXX    oooo++                ",
"             $ooooo        ooooo                ",
"            $$@oo           oo$$                ",
"            $@@$            $$@                 ",
"           $@@$             $$@                 ",
"           $$@              $$$@                ",
"           $$$              $$$$@               ",
"            $$$              $$$$$              ",
"                                                ",
"                                                "
};
