/* XPM */
static char *deb9f547ce124743d52ca45282a173b7PFQNbHznGM9L7Toy[] = {
/* columns rows colors chars-per-pixel */
"48 48 21 1 ",
"  c #527687",
". c #537788",
"X c #557A8A",
"o c #5A7D8D",
"O c #5C808F",
"+ c #5E8290",
"@ c #638593",
"# c #688794",
"$ c #668896",
"% c #688997",
"& c #6C8C99",
"* c #708D97",
"= c #708F9C",
"- c #6F909C",
"; c #72919E",
": c #7694A0",
"> c #7996A2",
", c #7D9AA5",
"< c #809CA7",
"1 c #829DA8",
"2 c #85A0AB",
/* pixels */
"XX%o.O@--:$#@@+XX.XXOOO+&+OO+--$+X+&XXXXXO&--&X.",
"XX$+..o:$+XX.Xo$&&&&$++$+&-&-$OO@&&&@+O+$-@XXX.X",
"oXO;&%-%XXXXX@@#&&@++O+OO XOO&$++@oo+&>>>@+&OXXO",
";-@$%$@$&+o@&&oX....O++X     +,:&oo@%;:OXOO$;--;",
"@&&oXXX@@&:&@X....X+@-;-&&&%$@@@&&%#ooo&O$$@#OO@",
"oXO&&@@$$$$:;#oXo@%$+@++@$&;--@XXooo..X&;&OOXXXX",
"XXXX&%XoXo..+:&&%-&+OX...X.O>&;$oXX.X..=,-@.XXXX",
"oXXo%o.   ..o&;#%-&@X.  XXO##oO$%&&:=:>=%;>-+oXX",
"OO+@&+XX   o#&#Xo+&&&++o$-&+.   XX@:&&@ X++-;-+O",
"-:;@+%@XX++@=&=:;;=%;:&&$O+.  .oo&,&.o@XX+$&-$$$",
"-;OoX++++-;+X.Xoo.  .+#@O#%=&*=;:<&X.X+&&@+OOXOO",
"@-+.O+%%%;-$oX XX.Xoo&##$ooooOo@##oo#&#o.XXO   O",
"O+@$+OOXXXo+$@$$#%&=;,&@   XXXXo@$&#X . .  oO X ",
"XX+-+XXXX .X+$@&@o@&#+oooooOooo#&&&&%OX....o+XOX",
"XO+@ooXXX+$;&$+::===%%$###%&==;#  +@%@@@+Oo+&OOX",
"++&-@%++-::+o ..o#&=&@%X..XXXo=o    XXO;:,,2+XOO",
"&+$XO@-,-OO     o.Xo$%XXXXXXXX$%o. XXXX$:-++@-$&",
"OO X XO$+O     O@@##@ooOooXXXX+@++++oo@:@X.X.@&+",
"+O  X .O&-O OO+$##=@o. o@@@++$@OXo@&:,,:+. ..+$+",
"+OX OX. O+&&+O+$#@X@&&+$-$$>;;$O+++o:$+oo. .X&@+",
"::+$+oo+&---:&++$$#@++OO%$$@$%$$$$#$$   o&:&:$o+",
"O+:>>:%+O X+&:;-$....X+@%OOX...XX+$o    .o+:#.  ",
"XOO+&%+X.XOXXO+-o......XX@-X...XXo$&@oX ..o++o. ",
"X+++++O++o.o+++-&oX..XX..X$%OX@O&&&o@$$$+++o++o.",
"&&+X Xo++$&+OX  O-;$$@++O$&;2,%#+oX Xo-;+o...&&$",
"-O    Xo+-+OX    O-;-++@%&#+&;;&@$++$$+o@&+XX$$&",
"-++OO++++$  X     +$XOoo%;O.X@%-:&+-$oXXX+&&&:$+",
"+OO&;-&+OOO XOO X$+XX o.X%%OO#%X   O%:$+XX@&&@@$",
"OO+&OXXX  OO+@:-$+O+oXXoo&#oo@=.    Xo@&-@@%oooo",
"++O+OoXX  OO++:;++O->=&&##*&;,<&+oo  ..XX+$++++o",
"OXX+&+OXOO+&:$O+,,--=1;o..  o.X&--&OX .X.o&X  ..",
"++$&O+-->:-&+X  X OO@&o..      o-;&---$&::&$++++",
"&++OOO+$:,-++XX     X+o... .    O:,,;:&++$$-&&-%",
"OO OO+O O+-++X X    O@$$+OXX O   +--+OXXXX XX+$X",
"OOOO+$$O  +-&&+++Oo+&-&$&&%OOO  O&+O   XX  O++++",
"O$-$+O+&&++&&---&&-&@+o.OO+++OOOOO   XXOXO++OXX+",
"O$OO  O+&,+ XXO+&++o.  . O OOOOO   XO+++&&+OXXXX",
"+$OOOO+$$X  X XX&$+X   X  OOOOOOX   O++OO++OOXXO",
"-OOO++-OX     X+$&$++++oOO+O+O+OOOXO+&&-OOOO---&",
"OO O+$$O  XXX+%+$$Xo+O@$$:;:---:;->,,:-+OOXXO&&O",
"OXXXX+++@$$$--&;@X.XXX$;,-&+Ooooo+=,&oX+O++O+$$O",
"OXXO+oX++;:,,,:+@oXoooo$&+oXXXXooXXo,@XoO$:$-OOO",
"+&+-OXXXXO+oXXo+#&:::;$+&o  X XXoo.o+:&+OOOOO+$+",
"--&$+XXXo+o    ..o@-+ooo+&-;;-;;&&@&&&+XO   XO$:",
"+OOX+++$&o+oooooo&>#X... o@:2:&$@o..@&+oOXXX OO+",
"+OXX+&;+o@+o+&&&&$:o.XX.  o+>&+XXXXoo,;++-+&++&&",
"-;-::&oXXX+&#ooooo$-++++@$-&+@+Oo+oo+$+++++++++>",
"OO++o$+ooXo@&;=&$#$++oo@&&o. X++ooX+$OXO+++++-&+"
};
