/* XPM */
static char *_ed5c3633d2f4103beaa7f41e0bd3210i8X9i1aQoXUejbpO[] = {
/* columns rows colors chars-per-pixel */
"48 48 25 1 ",
"  c #000000",
". c #182537",
"X c #724B36",
"o c #2D4362",
"O c #384C67",
"+ c #45576C",
"@ c #82553A",
"# c #94603C",
"$ c #9F663D",
"% c #986A3F",
"& c #A12643",
"* c #B07740",
"= c #B0A230",
"- c #D3BA28",
"; c #DEC537",
": c #D4AC7C",
"> c #E5CD4A",
", c #506882",
"< c #738FC0",
"1 c #E3BF93",
"2 c #CDD6B0",
"3 c #90A4C5",
"4 c #AEBACD",
"5 c #E0E4CC",
"6 c #E5E8CF",
/* pixels */
"                                                ",
"                                                ",
"                                                ",
"                                                ",
"                                                ",
"                                                ",
"                                                ",
"                                                ",
"                                                ",
"                                                ",
"                       @@@                      ",
"                      @->@$                     ",
"                     @@=-$X@                    ",
"                     $$$XX$@@                   ",
"                      ,+,,+$@                   ",
"                     @.,..,@$                   ",
"      4              @,,,,+@@                   ",
"      443            @@,++$$@@                  ",
"       433<3        ,+$+,$@++,+                 ",
"        433<3      ,++@$$@@,++,+                ",
"         433<3    ,+++O$@@OO,++,+               ",
"          433<3   ,++O,@@+,OO,+,+               ",
"           433<3   ,O+,,O+,,O,,,,               ",
"            433<3   2++,O++,,##6                ",
"             43333  2++OOO+++66X                ",
"              4333   2O++OOO6665                ",
"               4333 ;2+oo+O6655                 ",
"                4333 ;%OOo65552                 ",
"                  33;%%@@**522                  ",
"                 ; ;::%+****,+                  ",
"                  ; :::1***@+,+                 ",
"                   @@:111*@@@+,+                ",
"                  @@$X111@@@@@+,+               ",
"                 @$$@@X1&&;@$@++,+              ",
"                @$$$$@@XX;X;$$$++,              ",
"                $$$$XXXXXX;X@$$$@@              ",
"               $$$$$@XXXXXXXX$$$$@@             ",
"               $$$@@XX       X$$$@@@            ",
"                XXXX           $$$@@@           ",
"                OOOO            @@@@@           ",
"                 oOO             ++++           ",
"                 oOO              O+++          ",
"                 oOO               O+++         ",
"                oOOO               O+++         ",
"               oOOOO              O++++         ",
"              OOOOO              +++++          ",
"                                                ",
"                                                "
};
