/* XPM */
static char *b60656a391e44363af8734994578d12cQVQ3qDrO23XFrzBF[] = {
/* columns rows colors chars-per-pixel */
"48 48 23 1 ",
"  c None",
". c #182537",
"X c #724B36",
"o c #2D4362",
"O c #384C67",
"+ c #45576C",
"@ c #82553A",
"# c #94603C",
"$ c #9F663D",
"% c #986A3F",
"& c #A12643",
"* c #B07740",
"= c #B0A230",
"- c #D3BA28",
"; c #DEC537",
": c #E5CD4A",
"> c #506882",
", c #738FC0",
"< c #E3BF93",
"1 c #CDD6B0",
"2 c #90A4C5",
"3 c #AEBACD",
"4 c #E0E4CC",
/* pixels */
"                                                ",
"                                                ",
"                                                ",
"                                                ",
"                                                ",
"                                                ",
"                                                ",
"                                                ",
"                                                ",
"                                                ",
"                                                ",
"                   @@@                          ",
"                  @-:@$                         ",
"                 @@=-$X@                        ",
"                 $$$XX$@@                       ",
"                  >+>>+$@                       ",
"                 @.>..>@$                       ",
"                 @>>>>+@@                       ",
"                 @@>++$$@@+                     ",
"                 >$+>$@+++>+                    ",
"                >+@$$@@>>++>+                   ",
"               >+++$@@+OO>>>>4       ;          ",
"               >>+O@@O+>>O14444     ; ;         ",
"                XO+>>O++>>O1444*    &;          ",
"           <    11++>OO+++OO1****  &&           ",
"          <<<*%1111+OO+OOOOO %****&&            ",
"          <<<*%%1111O+oo+OOO  %%*<&             ",
"           <*%%1111  +OOo+O#  ;%<<<             ",
"             %1111    #####+ ; ;<<<             ",
"                      ++++>++ 22;<              ",
"                     @@@@++>+222 ;              ",
"                   @$$$@@@+2222 ;               ",
"                  @$$$@@@@22223+                ",
"                 @$$$$$@@2,223>++               ",
"                 @$$$@X@2,223++>+               ",
"                  @$$$@2,223XXXXX               ",
"                  @$@@2,223XXXXXXX              ",
"                   @@2,223@@@XXXXXX             ",
"                   @@,223    XXXXXOO            ",
"                    +223      XXXOOOO           ",
"                    223++      XXOOOOO          ",
"                    33+++++        OOO          ",
"                   33+++++         OOO          ",
"                   ++++++         OOO           ",
"                                  OO            ",
"                                                ",
"                                                ",
"                                                "
};
