/* XPM */
static char *b2fec787eca74498b8a9007d55eebe6ad2Ml68P4dynvnrAm[] = {
/* columns rows colors chars-per-pixel */
"48 48 24 1 ",
"  c None",
". c #182537",
"X c #724B36",
"o c #2D4362",
"O c #384C67",
"+ c #45576C",
"@ c #82553A",
"# c #94603C",
"$ c #9F663D",
"% c #986A3F",
"& c #A12643",
"* c #B07740",
"= c #B0A230",
"- c #D3BA28",
"; c #DEC537",
": c #E5CD4A",
"> c #506882",
", c #738FC0",
"< c #E3BF93",
"1 c #CDD6B0",
"2 c #90A4C5",
"3 c #AEBACD",
"4 c #E0E4CC",
"5 c #E5E8CF",
/* pixels */
"                                                ",
"                                                ",
"                                                ",
"                                                ",
"                                                ",
"                                                ",
"                                                ",
"                                                ",
"                                                ",
"                                                ",
"                                                ",
"                                                ",
"                    @@@                         ",
"                   @-:@$                        ",
"                  @@=-$X@                       ",
"                  $$$XX$@@                      ",
"                   >+>>+$@                      ",
"                  @.>..>@$                      ",
"                  @>>>>+@@                      ",
"                  @@>++$$@@+                    ",
"                  >$+>$@+++>+                   ",
"                 >+@$$@@>>++>+                  ",
"                >+++$@@+OO>>>>       ;          ",
"                >>+O@@O+>>O1444     ; ;         ",
"                  4+>>O++>O1444*    &;          ",
"               < 115+>OO++OO1****  &&           ",
"              <<<*%11OO+OOOOO%****&&            ",
"              <<<*%%11+oo+OOO %%*<&             ",
"              <<*%%11  OOo+O# ;%<<<             ",
"               <<%%11  #####+; ;<<<             ",
"                <<%1   +2++>++22;<              ",
"                      @@@2222222 ;              ",
"                    @$2$$@222221;               ",
"                   @$$$22222223++               ",
"                  2@$$$$22,223+>+               ",
"                   22$$22,223+++>               ",
"                    22$2,223XXXXXX              ",
"                    222,223@@@XXXXX             ",
"                    22,223@XX@@XXXXX            ",
"                    2,223 ++++ XXXXXX           ",
"                    2223   O+++++++OO           ",
"                   2223    O++++++OOOO          ",
"                   333    O+++++  OOOO          ",
"                   33    +++++    OOOO          ",
"                                 OOOO           ",
"                                OOOO            ",
"                                                ",
"                                                "
};
