/* XPM */
static char *c893a779d8354d13f82281bb484026b5OzT6tIUOpQGVP7fP[] = {
/* columns rows colors chars-per-pixel */
"48 48 23 1 ",
"  c None",
". c #182537",
"X c #724B36",
"o c #2D4362",
"O c #384C67",
"+ c #45576C",
"@ c #82553A",
"# c #94603C",
"$ c #9F663D",
"% c #986A3F",
"& c #A12643",
"* c #B07740",
"= c #B0A230",
"- c #D3BA28",
"; c #DEC537",
": c #E5CD4A",
"> c #506882",
", c #738FC0",
"< c #E3BF93",
"1 c #CDD6B0",
"2 c #90A4C5",
"3 c #AEBACD",
"4 c #E0E4CC",
/* pixels */
"                                                ",
"                                                ",
"                                                ",
"                                                ",
"                                                ",
"                                                ",
"                                                ",
"                                                ",
"                                                ",
"                                                ",
"                   @@@                          ",
"                  @-:@$                         ",
"                 @@=-$X@                        ",
"                 $$$XX$@@                       ",
"                  >+>>+$@                       ",
"                 @.>..>@$                       ",
"                 @>>>>+@@                       ",
"                 @@>++$$@@+                     ",
"                >>$+>$@+++>>+                   ",
"               >++@$$@@>>>++>+                  ",
"               >>++$@@+OOO>>>>4       ;         ",
"          <     1OO@@O+>>OO14444     ; ;        ",
"         <<<%  X11+>>O++>>OO1444*    &;         ",
"         <<<%% 1XX++>OO+++OO11****  &&          ",
"          <*%111111+OO+OOOOO  %****&&           ",
"           %111111  O+oo+OOO   %%*<&            ",
"            11111    +OOo+O#   ;%<<<            ",
"              11      #####++ ; ;<<<            ",
"                      ++++>++++22;<             ",
"                     @@@@++>>+222 ;             ",
"                    @@@@@@@+22224;              ",
"                   @$$@@@XX222234               ",
"                  @$$@@@XX2,2234XX              ",
"                 @$$$$@@@2,223XXXXXO            ",
"                 @$$@@$$2,223XXXXXOOO           ",
"                @$$@@@X2,223XXXXXXOOOO          ",
"                @$@@@X2,223XXXXXX  OOO          ",
"               @@@@@X ,223  XXXX    OO          ",
"               @@@@X  223            O          ",
"               @@@@  223                        ",
"               @@@@  33                         ",
"               ++@  33                          ",
"               O++                              ",
"              O+++                              ",
"             O++++                              ",
"            +++++                               ",
"                                                ",
"                                                "
};
