/* XPM */
static char *_ae54dfe449b42bffd513f0507ec7c23zUAtH4VfdrfkBlic[] = {
/* columns rows colors chars-per-pixel */
"48 48 9 1 ",
"  c None",
". c #110A03",
"X c #3E3030",
"o c #630D26",
"O c #C45E2C",
"+ c #B52D1B",
"@ c #F07508",
"# c #B04511",
"$ c #EADFC2",
/* pixels */
"................................................",
".$$.$$$$$$$$.$$$$$$.$$$$$$$$.$$$$$$.$$$$$$$$.$$.",
".#O.$######O.$####O.$######O.$####O.$######O.#O.",
".#O.$######O.$####O.$######O.$####O.$######O.#O.",
".#O.$######O.$####O.$######O.$####O.$######O.#O.",
".#O.$######O.$####O.$######O.$####O.$######O.#O.",
".#O.$######O.$####O.$######O.$####O.$######O.#O.",
".OO.OOOOOOOO.OOOOOO.OOOOOOOO.OOOOOO.OOOOOOOO.OO.",
".....................................$$.O######$",
".....................................$$.O######$",
".....................................$$.O######$",
".....................................$$.O######$",
".....................................$$.O######$",
".....................................$$.O######$",
".....................................$$.O######$",
".....................................$$.O######$",
".....................................$$.O######$",
".....................................$$.O######$",
".....................................$$.O######$",
".....................................$$.O######$",
".....................................$$.O######$",
".....................................$$.O######$",
".....................................$$.O######$",
".....................................$$.O######$",
".....................................$$.O######$",
".....................................$$.O######$",
".....................................$$.O######$",
".....................................$$.O######$",
".....................................$$.O######$",
".....................................$$.O######$",
".....................................$$.O######$",
".....................................$$.O######$",
".....................................$$.O######$",
".....................................$$.O######$",
".....................................$$.O######$",
".....................................$$.O######$",
".....................................$$.O######$",
".....................................$$.O######$",
".....................................$$.O######$",
".....................................$$.O######$",
".$$.$$$$$$$$.$$$$$$.$$$$$$$$.$$$$$$.$$$$$$$$.$$.",
".#O.$######O.$####O.$######O.$####O.$######O.#O.",
".#O.$######O.$####O.$######O.$####O.$######O.#O.",
".#O.$######O.$####O.$######O.$####O.$######O.#O.",
".#O.$######O.$####O.$######O.$####O.$######O.#O.",
".#O.$######O.$####O.$######O.$####O.$######O.#O.",
".OO.OOOOOOOO.OOOOOO.OOOOOOOO.OOOOOO.OOOOOOOO.OO.",
"................................................"
};
